<svg width="30" height="31" viewBox="0 0 30 31" fill="none" xmlns="http://www.w3.org/2000/svg">
<path fill-rule="evenodd" clip-rule="evenodd" d="M2.8125 15.5C2.8125 8.77 8.27 3.3125 15 3.3125C18.0829 3.3105 21.0508 4.48291 23.3 6.59125C23.3922 6.67718 23.4661 6.78083 23.5174 6.89598C23.5686 7.01114 23.5961 7.13545 23.5982 7.26147C23.6003 7.38749 23.577 7.51265 23.5296 7.62945C23.4822 7.74625 23.4118 7.8523 23.3225 7.94125L20.1413 11.1225C19.9721 11.2917 19.7447 11.3898 19.5056 11.3968C19.2665 11.4037 19.0337 11.319 18.855 11.16C17.7952 10.2111 16.4225 9.6868 15 9.6875C13.4584 9.6875 11.98 10.2999 10.8899 11.3899C9.79989 12.48 9.1875 13.9584 9.1875 15.5C9.1875 17.0416 9.79989 18.52 10.8899 19.6101C11.98 20.7001 13.4584 21.3125 15 21.3125C15.9634 21.3125 16.9116 21.0725 17.759 20.6142C18.6065 20.1559 19.3264 19.4937 19.8538 18.6875H15C14.7514 18.6875 14.5129 18.5887 14.3371 18.4129C14.1613 18.2371 14.0625 17.9986 14.0625 17.75V13.25C14.0625 13.0014 14.1613 12.7629 14.3371 12.5871C14.5129 12.4113 14.7514 12.3125 15 12.3125H26.0312C26.2483 12.3124 26.4586 12.3876 26.6264 12.5253C26.7942 12.663 26.909 12.8546 26.9513 13.0675C27.1093 13.8687 27.1884 14.6834 27.1875 15.5C27.1875 22.23 21.73 27.6875 15 27.6875C8.27 27.6875 2.8125 22.23 2.8125 15.5ZM15 5.1875C12.9044 5.18803 10.8587 5.82698 9.13537 7.01926C7.41201 8.21153 6.09278 9.90054 5.35337 11.8613C4.61397 13.8221 4.48948 15.9617 4.99649 17.995C5.50349 20.0283 6.61793 21.8589 8.19138 23.243C9.76483 24.6271 11.7226 25.499 13.804 25.7426C15.8854 25.9862 17.9916 25.5899 19.8421 24.6064C21.6926 23.623 23.1996 22.0992 24.1623 20.2378C25.1251 18.3765 25.498 16.266 25.2312 14.1875H15.9375V16.8125H21.3575C21.5075 16.8125 21.6552 16.8485 21.7884 16.9175C21.9216 16.9864 22.0363 17.0863 22.1229 17.2088C22.2094 17.3312 22.2654 17.4727 22.286 17.6212C22.3066 17.7698 22.2912 17.9211 22.2412 18.0625C21.6361 19.7705 20.4468 21.2098 18.8835 22.126C17.3202 23.0423 15.4833 23.3767 13.6974 23.0702C11.9115 22.7636 10.2913 21.8358 9.12299 20.4507C7.9547 19.0655 7.31346 17.3121 7.3125 15.5C7.3125 13.4612 8.12243 11.5058 9.56412 10.0641C11.0058 8.62243 12.9611 7.8125 15 7.8125C16.6412 7.8125 18.1588 8.33125 19.405 9.2075L21.2788 7.3325C19.4815 5.94115 17.2728 5.1866 15 5.1875Z" fill="black"/>
</svg>
