<svg width="31" height="31" viewBox="0 0 31 31" fill="none" xmlns="http://www.w3.org/2000/svg">
<g clip-path="url(#clip0_138_6)">
<path d="M29.5544 12.7962C29.7295 13.8029 29.8167 14.823 29.815 15.8449C29.815 20.4087 28.1838 24.2674 25.345 26.8793H25.3488C22.8663 29.1724 19.4538 30.4999 15.4075 30.4999C11.4293 30.4999 7.61398 28.9196 4.80093 26.1065C1.98788 23.2935 0.407532 19.4782 0.407532 15.4999C0.407532 11.5217 1.98788 7.70636 4.80093 4.89332C7.61398 2.08027 11.4293 0.49992 15.4075 0.49992C19.1308 0.458456 22.7261 1.85708 25.4425 4.40367L21.16 8.68617C19.6117 7.21102 17.5459 6.40301 15.4075 6.43617C11.4944 6.43617 8.17003 9.07617 6.98503 12.6312C6.35784 14.4942 6.35784 16.5113 6.98503 18.3743H6.99066C8.18128 21.9237 11.5 24.5637 15.4132 24.5637C17.4344 24.5637 19.1707 24.0462 20.5169 23.1312H20.5113C21.2931 22.6135 21.9619 21.9426 22.4772 21.1592C22.9925 20.3758 23.3437 19.496 23.5094 18.573H15.4075V12.798L29.5544 12.7962Z" fill="black"/>
</g>
<defs>
<clipPath id="clip0_138_6">
<rect width="30" height="30" fill="white" transform="translate(0.407532 0.5)"/>
</clipPath>
</defs>
</svg>
