<svg width="30" height="31" viewBox="0 0 30 31" fill="none" xmlns="http://www.w3.org/2000/svg">
<g clip-path="url(#clip0_138_4)">
<path d="M21.7345 22.6312H21.5073C21.8738 22.2682 22.2025 21.8671 22.4874 21.434C23.0399 20.5941 23.4163 19.6509 23.594 18.6614L23.6997 18.073H23.1019H15.5V13.298L28.7211 13.2962C28.8466 14.1395 28.9089 14.9912 28.9075 15.8441V15.8449C28.9075 20.2873 27.322 24.006 24.599 26.5113L24.3979 26.6963C22.0347 28.7831 18.8225 29.9999 15 29.9999C11.1544 29.9999 7.46623 28.4722 4.74695 25.753C2.02767 23.0337 0.5 19.3456 0.5 15.4999C0.5 11.6543 2.02767 7.96615 4.74695 5.24687C7.46623 2.52759 11.1544 0.99992 15 0.99992V0.999951L15.0056 0.999889C18.4273 0.961783 21.7371 2.1836 24.3095 4.42204L20.7343 7.99726C19.1392 6.64062 17.1009 5.90447 14.9961 5.93617C10.8532 5.93791 7.35087 8.7308 6.10337 12.4724C5.44159 14.4387 5.44168 16.5676 6.10363 18.5338L6.21825 18.8743H6.23066C7.57755 22.4384 10.9876 25.0637 15.0056 25.0637C17.1121 25.0637 18.9497 24.5239 20.3904 23.5447L21.7345 22.6312ZM29.4075 15.8449C29.4075 20.1257 27.9722 23.7863 25.4514 26.3793H24.9412H24.9375V26.8752L29.4075 15.8449Z" stroke="black"/>
</g>
<defs>
<clipPath id="clip0_138_4">
<rect width="30" height="30" fill="white" transform="translate(0 0.5)"/>
</clipPath>
</defs>
</svg>
