<svg width="60" height="60" viewBox="0 0 60 60" fill="none" xmlns="http://www.w3.org/2000/svg">
<g clip-path="url(#clip0_79_4)">
<path d="M10.6249 0H49.3751C55.2499 0 60 4.86408 60 10.8799V49.0241C60 55.0399 55.2499 59.904 49.3751 59.904H10.6249C4.75008 59.904 0 55.0399 0 49.0241V10.8799C0 4.86408 4.75008 0 10.6249 0Z" fill="#00005B"/>
<path d="M14.25 42.0095V15.6671C14.25 15.4878 14.325 15.3855 14.5001 15.3855L14.8629 15.3848L15.1437 15.3824L15.3417 15.3786L15.5527 15.3731L15.7793 15.3649L15.9 15.3599C16.125 15.3503 16.3535 15.3443 16.5867 15.3392L17.3027 15.3239C17.3841 15.3219 17.4662 15.3197 17.5491 15.3171L17.7998 15.3087C18.0248 15.3004 18.2555 15.294 18.4917 15.2895L19.2166 15.2763L19.7184 15.2651L19.9751 15.2574C20.4916 15.2406 20.9972 15.2348 21.499 15.2329L22.2499 15.2319C24.3 15.2319 25.9999 15.4878 27.4001 16.0254C28.655 16.4619 29.7993 17.179 30.75 18.1247C31.5554 18.9524 32.1778 19.9477 32.5751 21.0431C32.9501 22.1183 33.15 23.2191 33.15 24.3711C33.15 26.5727 32.65 28.3903 31.65 29.8239C30.6499 31.2575 29.25 32.3327 27.6251 32.9471C25.9816 33.5658 24.1748 33.8015 22.2045 33.8166H21.4898L21.2116 33.8137L21.0333 33.8094L20.9283 33.8048L20.8341 33.7991L20.7499 33.7919C20.696 33.7865 20.6419 33.7823 20.5877 33.7794L20.4659 33.7739L20.3323 33.7703L20.1094 33.7671L19.6751 33.7662V41.9838C19.6999 42.1631 19.575 42.3167 19.3999 42.3423H14.55C14.3501 42.3423 14.25 42.2399 14.25 42.0095ZM19.6999 20.3262V28.9278L19.9938 28.9494C20.2205 28.9672 20.4476 28.9771 20.6749 28.9791H22.0001C22.9751 28.9791 23.9501 28.8255 24.8749 28.5183C25.6751 28.2879 26.3749 27.8015 26.925 27.1614C27.45 26.5215 27.7001 25.6511 27.7001 24.5247C27.7235 23.7247 27.5241 22.9344 27.1249 22.2462C26.7178 21.6085 26.1497 21.1117 25.4651 20.8235L25.3751 20.787C24.45 20.403 23.4499 20.2494 22.425 20.2751L21.847 20.2758L21.5754 20.2775L21.3159 20.2811L21.0696 20.2868C20.9495 20.29 20.8346 20.2947 20.7251 20.3007C20.6713 20.298 20.6176 20.2957 20.5638 20.294L20.4141 20.2907L20.3438 20.2902L20.2111 20.2909L20.0906 20.2943L20.0348 20.2967L19.9324 20.3027L19.8424 20.3099L19.8019 20.3137L19.7309 20.3221L19.6999 20.3262ZM36.6499 21.8111H41.025C41.261 21.8111 41.4527 21.9709 41.5364 22.1828L41.55 22.2207C41.625 22.4255 41.6749 22.6302 41.7 22.8606C41.7499 23.1167 41.8001 23.3982 41.8249 23.6543L41.846 23.9019C41.8624 24.1134 41.8751 24.3383 41.8751 24.5759C42.5911 23.7199 43.4497 23.0009 44.411 22.4521L44.55 22.3743C45.7001 21.7086 47.025 21.3759 48.3499 21.3759C48.525 21.3503 48.675 21.4782 48.7001 21.6575V26.7519C48.7001 26.9567 48.5749 27.0335 48.3 27.0335C47.46 27.0095 46.5984 27.075 45.7758 27.2502L45.6 27.2895C44.875 27.4431 44.175 27.6735 43.5 27.9807C43.0249 28.2111 42.5749 28.5183 42.225 28.9278V41.9838C42.225 42.2399 42.1249 42.3423 41.8999 42.3423H36.975C36.7751 42.3678 36.6 42.2399 36.5749 42.0351V27.7503C36.5749 27.1359 36.5749 26.4959 36.5501 25.8303L36.5351 25.3311L36.5149 24.3327C36.5112 24.1663 36.5062 23.9999 36.4999 23.8335C36.4999 23.2446 36.45 22.6815 36.4001 22.0926C36.375 21.9647 36.45 21.8367 36.5749 21.8111C36.5749 21.7892 36.6117 21.7861 36.638 21.8015L36.6499 21.8111Z" fill="#9999FF"/>
</g>
<defs>
<clipPath id="clip0_79_4">
<rect width="60" height="60" fill="white"/>
</clipPath>
</defs>
</svg>
