<svg width="60" height="60" viewBox="0 0 60 60" fill="none" xmlns="http://www.w3.org/2000/svg">
<g clip-path="url(#clip0_28_809)">
<path d="M50.0391 0H9.96094C4.45966 0 0 4.5667 0 10.2V49.704C0 55.3373 4.45966 59.904 9.96094 59.904H50.0391C55.5403 59.904 60 55.3373 60 49.704V10.2C60 4.5667 55.5403 0 50.0391 0Z" fill="#001E36"/>
<path d="M13.5103 42.0085V15.6714C13.5103 15.4792 13.5908 15.383 13.7519 15.3829L14.0067 15.3822L14.4421 15.3774L15.0473 15.3651L17.0746 15.3212L19.2485 15.2799C20.013 15.2663 20.771 15.2594 21.5224 15.2593C23.5614 15.2593 25.2788 15.5203 26.6744 16.0424C27.9335 16.4782 29.0817 17.1963 30.0353 18.1443C30.8439 18.9659 31.4687 19.9574 31.8667 21.0502C32.2431 22.1138 32.4339 23.2368 32.4304 24.368C32.4304 26.5666 31.9339 28.3801 30.941 29.8086C29.9699 31.2022 28.6154 32.268 27.0503 32.87L26.916 32.9204C25.2817 33.5446 23.4719 33.7702 21.487 33.7844L21.1785 33.7854L20.7208 33.783L20.4899 33.7796L20.2326 33.7734L20.0774 33.7671L19.9832 33.7621L19.7514 33.7534L19.4681 33.7474L19.0415 33.7443L18.9466 33.7441V41.9672C18.9536 42.0176 18.9491 42.069 18.9334 42.1173C18.9177 42.1656 18.8912 42.2095 18.856 42.2455C18.8209 42.2815 18.778 42.3087 18.7308 42.3248C18.6837 42.3408 18.6335 42.3455 18.5842 42.3382H13.7922C13.6041 42.3384 13.5101 42.2285 13.5103 42.0085ZM18.9468 20.3288V28.9189C19.2953 28.9466 19.6171 28.9603 19.9124 28.9602H21.2409C22.1568 28.9569 23.0673 28.8173 23.9439 28.5457L24.1188 28.4898C24.9163 28.2474 25.629 27.7752 26.1717 27.1294C26.676 26.5203 26.9373 25.681 26.9554 24.6114L26.9566 24.4916C26.9777 23.6943 26.7752 22.9076 26.3728 22.2248C25.95 21.5643 25.3386 21.0533 24.622 20.7615C23.6864 20.389 22.6869 20.2138 21.6836 20.2465L21.1731 20.2479L20.8511 20.2508L20.5438 20.2549L20.1103 20.2635L19.7938 20.2726L19.6295 20.2789L19.4099 20.2894L19.2229 20.3012L19.1163 20.3098L19.0242 20.319L18.9836 20.3238L18.9468 20.3288ZM47.9929 27.357C47.2907 26.9876 46.546 26.7101 45.7762 26.5309L45.5981 26.4915C44.7512 26.2926 43.8866 26.183 43.0178 26.1644L42.8008 26.1618C42.2915 26.1476 41.783 26.2101 41.2914 26.3473C40.9786 26.4188 40.7005 26.6012 40.5063 26.8623C40.375 27.0713 40.3052 27.3146 40.3052 27.5631C40.3125 27.8041 40.3974 28.0359 40.5466 28.2224C40.7602 28.4782 41.0171 28.6926 41.3048 28.8553L41.392 28.9026C41.9659 29.2189 42.5572 29.501 43.1629 29.7474C44.5136 30.2107 45.8043 30.8404 47.0067 31.6227C47.8258 32.152 48.5036 32.8815 48.9792 33.7455C49.3788 34.5636 49.5791 35.4686 49.5628 36.3831C49.5866 37.591 49.2496 38.7774 48.5967 39.7837C47.8976 40.805 46.9265 41.5989 45.7992 42.0709C44.6185 42.6021 43.1688 42.8766 41.4499 42.8946L41.2713 42.8955C40.2057 42.9064 39.1416 42.8109 38.0941 42.6104L37.87 42.5658C36.9881 42.4001 36.1296 42.1232 35.3142 41.7414C35.2322 41.6981 35.1628 41.6333 35.1133 41.5536C35.0638 41.4739 35.0359 41.3821 35.0324 41.2878V36.7954C35.0276 36.7518 35.0344 36.7077 35.0522 36.6678C35.0699 36.6278 35.0979 36.5936 35.1332 36.5686C35.1677 36.5485 35.2075 36.5397 35.247 36.5434C35.2866 36.5471 35.3241 36.5631 35.3545 36.5893C36.3175 37.1707 37.3631 37.5948 38.4536 37.8464C39.4149 38.0932 40.401 38.2247 41.392 38.2381C42.3309 38.2381 43.0218 38.1144 43.4648 37.867C43.6647 37.7732 43.8338 37.622 43.9517 37.4318C44.0696 37.2417 44.1311 37.0207 44.129 36.7954C44.129 36.4386 43.9278 36.0952 43.5253 35.7651C43.3565 35.6269 43.1145 35.4765 42.7994 35.3139L42.6487 35.2381L42.4879 35.1606L42.4035 35.1212L42.2268 35.041L42.1347 35.0002L41.9425 34.9177L41.8424 34.8757L41.6348 34.7905L41.527 34.7473L41.3036 34.6592L41.0699 34.5697C39.8059 34.1196 38.6075 33.4956 37.5077 32.715C36.7209 32.1547 36.0731 31.4137 35.616 30.5511C35.2204 29.7389 35.0203 28.8415 35.0324 27.9339C35.0299 26.8434 35.3225 25.7734 35.8776 24.8427C36.5104 23.8179 37.4188 23.0019 38.4939 22.4936C39.6744 21.8894 41.1502 21.5871 42.9213 21.5866C43.9586 21.5781 44.995 21.6539 46.0206 21.8134C46.7633 21.91 47.4894 22.1111 48.1783 22.411C48.2892 22.4437 48.3785 22.5274 48.4197 22.6378C48.4471 22.7384 48.4605 22.8423 48.46 22.947V27.1098C48.4659 27.2082 48.4197 27.3025 48.3393 27.357C48.2855 27.3844 48.2262 27.3986 48.1661 27.3986C48.106 27.3986 48.0467 27.3844 47.9929 27.357Z" fill="#31A8FF"/>
</g>
<defs>
<clipPath id="clip0_28_809">
<rect width="60" height="60" fill="white"/>
</clipPath>
</defs>
</svg>
