<svg width="60" height="60" viewBox="0 0 60 60" fill="none" xmlns="http://www.w3.org/2000/svg">
<g clip-path="url(#clip0_28_812)">
<path d="M50.0391 0H9.96094C4.45966 0 0 4.5667 0 10.2V49.704C0 55.3373 4.45966 59.904 9.96094 59.904H50.0391C55.5403 59.904 60 55.3373 60 49.704V10.2C60 4.5667 55.5403 0 50.0391 0Z" fill="#330000"/>
<path d="M29.0752 35.9495H19.7775L17.8857 41.967C17.8599 42.0767 17.7976 42.1739 17.7094 42.2416C17.6212 42.3093 17.5127 42.3434 17.4026 42.338H12.6933C12.4249 42.338 12.331 42.1868 12.4116 41.8844L20.4617 18.1441C20.5421 17.8969 20.6226 17.6153 20.7031 17.2993C20.8086 16.7492 20.8625 16.1905 20.8641 15.6301C20.8586 15.5909 20.8621 15.5509 20.8743 15.5134C20.8866 15.4758 20.9072 15.4417 20.9345 15.4136C20.9618 15.3856 20.9951 15.3645 21.0318 15.352C21.0685 15.3394 21.1075 15.3358 21.1458 15.3414H27.5457C27.7332 15.3414 27.8405 15.4102 27.8677 15.5478L37.0043 41.9257C37.0848 42.2009 37.0043 42.3383 36.7629 42.338H31.5303C31.4404 42.3481 31.3501 42.3244 31.2761 42.2713C31.202 42.2182 31.1494 42.1394 31.1278 42.0495L29.0752 35.9495ZM21.2264 30.7563H27.586L27.4953 30.4499L27.3497 29.9646L27.2459 29.6238L27.0802 29.0871L26.7279 27.9575L26.4181 26.9559L25.6135 24.3471C25.4132 23.6986 25.221 23.0475 25.0369 22.394L24.8897 21.8636L24.7177 21.2365L24.4552 20.2645L24.406 20.0814H24.3659C24.1644 21.0707 23.9192 22.0501 23.6309 23.0166L23.0337 24.9836L22.7051 26.0703L22.3735 27.1705C22.3136 27.3692 22.2539 27.5657 22.1942 27.7599L22.0161 28.3355L21.8389 28.8975L21.6626 29.4457L21.4873 29.9802C21.4292 30.1562 21.3711 30.3298 21.3132 30.501L21.2264 30.7563ZM42.4376 19.7103C42.0271 19.7272 41.6178 19.6551 41.2363 19.4989C40.8548 19.3426 40.5099 19.1057 40.2239 18.8036C39.939 18.4883 39.7176 18.1184 39.5725 17.7153C39.4274 17.3121 39.3615 16.8836 39.3786 16.4543C39.364 16.0293 39.4371 15.6059 39.5931 15.2118C39.7492 14.8176 39.9847 14.4617 40.2842 14.1671C40.8619 13.5991 41.6314 13.2813 42.4322 13.2798L42.518 13.2807C43.4841 13.2807 44.2422 13.5761 44.7924 14.1668C45.07 14.4738 45.2858 14.8339 45.4273 15.2264C45.5689 15.6189 45.6335 16.0362 45.6174 16.4543C45.6344 16.8853 45.5666 17.3155 45.4179 17.7191C45.2693 18.1228 45.0428 18.4917 44.7521 18.8039C44.4586 19.1 44.1103 19.333 43.7276 19.4892C43.3449 19.6454 42.9355 19.7217 42.5236 19.7135L42.4376 19.7103ZM39.6603 41.9257V22.2246C39.6601 21.9772 39.7675 21.8535 39.9823 21.8535H44.9332C45.1478 21.8535 45.2551 21.9772 45.2553 22.2246V41.9257C45.2553 42.2009 45.1479 42.3383 44.9332 42.338H40.0226C39.7939 42.338 39.6735 42.2147 39.6614 41.9679L39.6603 41.9257Z" fill="#FF9A00"/>
</g>
<defs>
<clipPath id="clip0_28_812">
<rect width="60" height="60" fill="white"/>
</clipPath>
</defs>
</svg>
