<svg width="60" height="60" viewBox="0 0 60 60" fill="none" xmlns="http://www.w3.org/2000/svg">
<g clip-path="url(#clip0_28_806)">
<path d="M50.0391 0H9.96094C4.45966 0 0 4.5667 0 10.2V49.704C0 55.3373 4.45966 59.904 9.96094 59.904H50.0391C55.5403 59.904 60 55.3373 60 49.704V10.2C60 4.5667 55.5403 0 50.0391 0Z" fill="#00005B"/>
<path d="M24.1038 35.84H14.8059L12.914 41.869C12.8898 41.9724 12.833 42.0647 12.7525 42.1318C12.672 42.1989 12.5722 42.237 12.4685 42.2403L7.72193 42.2401C7.45318 42.2401 7.35927 42.0889 7.44021 41.7865L15.4903 18.1443L15.5707 17.8959L15.5974 17.811L15.6513 17.6334C15.678 17.5417 15.7047 17.4445 15.7317 17.3391C15.8372 16.7893 15.8911 16.2303 15.8927 15.6699C15.8873 15.6307 15.8908 15.5908 15.903 15.5533C15.9153 15.5157 15.9359 15.4816 15.9632 15.4536C15.9905 15.4256 16.0238 15.4046 16.0605 15.392C16.0972 15.3795 16.1362 15.3759 16.1744 15.3814H22.5743C22.7618 15.3814 22.8691 15.4502 22.8963 15.5876L32.0329 41.828C32.1134 42.1029 32.0329 42.2402 31.7915 42.2401H26.5589C26.469 42.2501 26.3787 42.2264 26.3047 42.1734C26.2306 42.1203 26.178 42.0415 26.1565 41.9516L24.1038 35.84ZM16.2551 30.7566H22.6146L22.5239 30.4501L22.3783 29.9648L22.1653 29.2698L21.7563 27.9577L21.3668 26.6967L20.6421 24.3474C20.4419 23.6988 20.2497 23.0477 20.0655 22.3942L19.8597 21.6512L19.6376 20.8369L19.4346 20.0816H19.3943C19.1928 21.0709 18.9476 22.0503 18.6593 23.0168L18.3874 23.9103L17.7335 26.0703L17.4021 27.1707C17.3422 27.3694 17.2825 27.5659 17.2228 27.7602L17.0447 28.3357L16.8675 28.8978L16.6912 29.4459L16.5159 29.9804C16.4286 30.2444 16.3416 30.5031 16.2551 30.7566ZM46.8452 33.4935H38.9161C39.013 34.2969 39.2736 35.0704 39.6808 35.7642C40.1309 36.4512 40.7674 36.9885 41.512 37.3098C42.5211 37.7571 43.6126 37.9762 44.7119 37.952C45.5841 37.9347 46.453 37.837 47.3081 37.6602C48.0728 37.5546 48.8223 37.3545 49.5401 37.0645C49.6743 36.9549 49.7415 37.0235 49.7416 37.2704V41.186C49.7482 41.2928 49.7273 41.3994 49.6809 41.4951C49.635 41.57 49.5731 41.6334 49.5 41.6806C48.7037 42.0418 47.8657 42.2974 47.0062 42.4414C45.8386 42.6659 44.652 42.7694 43.4641 42.7503C41.6182 42.7503 40.0622 42.4667 38.7961 41.8995L38.6742 41.8436C37.457 41.2947 36.382 40.462 35.535 39.4119C34.7437 38.4225 34.1551 37.2802 33.8041 36.0529C33.4568 34.8415 33.2807 33.5853 33.2812 32.3228C33.2774 30.9442 33.488 29.5737 33.9051 28.263C34.3068 26.9844 34.9418 25.7956 35.7766 24.7597C36.6002 23.7361 37.6299 22.9065 38.7954 22.3278C39.9759 21.7374 41.3714 21.5254 42.9813 21.5254C44.3165 21.4912 45.6427 21.7586 46.8656 22.3086C47.8938 22.7575 48.7989 23.4575 49.5018 24.3474C50.1615 25.2186 50.6656 26.2022 50.9911 27.253C51.308 28.2657 51.4709 29.3222 51.4741 30.3855C51.4741 30.9903 51.454 31.5399 51.4139 32.0343L51.378 32.4577L51.3405 32.8594L51.3183 33.063L51.3131 33.1059C51.3027 33.1968 51.26 33.2805 51.1933 33.3413C51.1265 33.4021 51.0403 33.4357 50.951 33.4357L50.8406 33.4381L50.703 33.4453L50.5959 33.4532L50.3456 33.475L50.1258 33.4974C50.0659 33.5038 50.0038 33.5098 49.9394 33.5154L49.74 33.5314L49.5269 33.5458L49.3008 33.5578L49.0612 33.5682L48.9363 33.5725L48.6768 33.5797C48.4202 33.5862 48.1572 33.5698 47.8875 33.5497L47.4783 33.519C47.2677 33.5032 47.0564 33.4947 46.8452 33.4935ZM38.9163 29.7387H44.3974L44.8643 29.7356L45.1816 29.731L45.3872 29.7262L45.6178 29.7181C45.8242 29.697 46.0235 29.6294 46.2014 29.5201V29.2729C46.1935 28.9505 46.1393 28.6311 46.0406 28.3249C45.8235 27.6217 45.3869 27.0109 44.7979 26.5865C44.2089 26.162 43.5001 25.9473 42.7804 25.9753C42.103 25.9334 41.4284 26.0943 40.8387 26.4382C40.249 26.7822 39.7698 27.2945 39.4596 27.9126C39.1837 28.4875 39.0002 29.104 38.9163 29.7387Z" fill="#9999FF"/>
</g>
<defs>
<clipPath id="clip0_28_806">
<rect width="60" height="60" fill="white"/>
</clipPath>
</defs>
</svg>
