<svg width="56" height="56" viewBox="0 0 56 56" fill="none" xmlns="http://www.w3.org/2000/svg">
<path fill-rule="evenodd" clip-rule="evenodd" d="M28 9.3335C29.995 9.3335 32.0413 9.38483 34.0246 9.46883L36.3673 9.58083L38.6096 9.71383L40.7096 9.85616L42.6276 10.0055C44.7094 10.1639 46.6685 11.0518 48.1599 12.5129C49.6512 13.974 50.5792 15.9144 50.7803 17.9925L50.8736 18.9842L51.0486 21.1075C51.212 23.3078 51.3333 25.7065 51.3333 28.0002C51.3333 30.2938 51.212 32.6925 51.0486 34.8928L50.8736 37.0162L50.7803 38.0078C50.5791 40.0863 49.6508 42.027 48.159 43.4881C46.6671 44.9492 44.7075 45.8369 42.6253 45.9948L40.712 46.1418L38.612 46.2865L36.3673 46.4195L34.0246 46.5315C32.0176 46.6184 30.0089 46.6636 28 46.6668C25.991 46.6636 23.9824 46.6184 21.9753 46.5315L19.6326 46.4195L17.3903 46.2865L15.2903 46.1418L13.3723 45.9948C11.2905 45.8364 9.33143 44.9485 7.84006 43.4874C6.3487 42.0264 5.42074 40.0859 5.21963 38.0078L5.12629 37.0162L4.95129 34.8928C4.77357 32.5994 4.67862 30.3004 4.66663 28.0002C4.66663 25.7065 4.78796 23.3078 4.95129 21.1075L5.12629 18.9842L5.21963 17.9925C5.42066 15.9148 6.34829 13.9746 7.83917 12.5136C9.33006 11.0526 11.2886 10.1644 13.37 10.0055L15.2856 9.85616L17.3856 9.71383L19.6303 9.58083L21.973 9.46883C23.9808 9.38186 25.9902 9.33674 28 9.3335ZM23.3333 22.3418V33.6585C23.3333 34.7365 24.5 35.4085 25.4333 34.8718L35.2333 29.2135C35.4465 29.0907 35.6237 28.914 35.7468 28.7009C35.87 28.4879 35.9349 28.2462 35.9349 28.0002C35.9349 27.7541 35.87 27.5124 35.7468 27.2994C35.6237 27.0864 35.4465 26.9096 35.2333 26.7868L25.4333 21.1308C25.2204 21.0079 24.9789 20.9432 24.7331 20.9433C24.4872 20.9433 24.2458 21.0081 24.0329 21.1311C23.8201 21.254 23.6433 21.4309 23.5205 21.6438C23.3977 21.8568 23.3331 22.0983 23.3333 22.3442V22.3418Z" fill="white"/>
</svg>
