<svg width="24" height="25" viewBox="0 0 24 25" fill="none" xmlns="http://www.w3.org/2000/svg">
<path fill-rule="evenodd" clip-rule="evenodd" d="M16.552 22.6335C15.112 22.5805 11.031 22.0165 6.757 17.7435C2.484 13.4695 1.921 9.38946 1.867 7.94846C1.787 5.75246 3.469 3.61946 5.412 2.78646C5.64598 2.68543 5.9022 2.64696 6.15553 2.67484C6.40886 2.70271 6.65059 2.79597 6.857 2.94546C8.457 4.11146 9.561 5.87546 10.509 7.26246C10.7176 7.56719 10.8068 7.93801 10.7596 8.30426C10.7123 8.67051 10.532 9.00659 10.253 9.24846L8.302 10.6975C8.20774 10.7655 8.14139 10.8655 8.11528 10.9788C8.08916 11.0921 8.10505 11.211 8.16 11.3135C8.602 12.1165 9.388 13.3125 10.288 14.2125C11.188 15.1125 12.441 15.9505 13.3 16.4425C13.4077 16.5029 13.5345 16.5198 13.6543 16.4897C13.774 16.4596 13.8777 16.3847 13.944 16.2805L15.214 14.3475C15.4475 14.0373 15.7919 13.8295 16.1752 13.7676C16.5584 13.7058 16.9508 13.7946 17.27 14.0155C18.677 14.9895 20.319 16.0745 21.521 17.6135C21.6826 17.8214 21.7854 18.0689 21.8187 18.3301C21.8519 18.5913 21.8144 18.8567 21.71 19.0985C20.873 21.0515 18.755 22.7145 16.552 22.6335Z" fill="black"/>
</svg>
